<svg width="1249" height="160" viewBox="0 0 1249 160" fill="none" xmlns="http://www.w3.org/2000/svg">
<g style="mix-blend-mode:soft-light" opacity="0.6">
<path fill-rule="evenodd" clip-rule="evenodd" d="M625.522 160.143H712.805L714.736 164.275L716.117 163.629L714.488 160.143H801.392L804.013 162.948L805.126 161.909L803.476 160.143H890.267L893.269 162.287L894.156 161.046L892.891 160.143H979.257L984.781 163.1L985.501 161.757L982.485 160.143H1067.55L1070.93 161.604L1071.54 160.205L1071.39 160.143H1156.01L1160.12 161.622L1160.64 160.188L1160.51 160.143H1243.72L1248.54 161.632L1248.98 160.177L1246.47 159.402V158.619H1243.95L1106.28 116.045V115.952H1105.99L918.855 58.0789V58.0476H918.758L874.665 44.4122V44.3333H874.413L790.855 18.4911V18.4286H790.653L761.141 9.30208V9.28572H761.09L732.413 0.416672L732.188 1.14435V0.142853H516.569V0.583328L488.43 9.28572H488.379V9.30208L458.867 18.4286H458.665V18.4911L330.761 58.0476H330.665V58.0789L0.535156 160.177L0.984561 161.632L6.8551 159.817V160.143H89.0054L88.8819 160.188L89.3997 161.622L93.5069 160.143H178.126L177.982 160.205L178.586 161.604L181.974 160.143H267.035L264.019 161.757L264.739 163.1L270.263 160.143H356.629L355.364 161.046L356.251 162.287L359.252 160.143H446.044L444.394 161.909L445.507 162.948L448.127 160.143H535.032L533.403 163.629L534.784 164.275L536.715 160.143H623.998V166.238H625.522V160.143ZM517.556 1.87202L517.492 1.66667H528.965L524.736 3.19048H513.293L517.556 1.87202ZM533.467 1.66667H545.641L542.107 3.19048H529.236L533.467 1.66667ZM549.489 1.66667H563.056L560.209 3.19048H545.955L549.489 1.66667ZM566.284 1.66667H578.495L576.363 3.19048H563.437L566.284 1.66667ZM580.251 2.2872L579.807 1.66667H594.055L592.63 3.19048H578.986L580.251 2.2872ZM596.138 1.66667H609.086L608.374 3.19048H594.714L596.138 1.66667ZM610.769 1.66667H623.998V3.19048H610.057L610.769 1.66667ZM625.522 1.66667H638.751L639.462 3.19048H625.522V1.66667ZM640.434 1.66667H653.382L654.806 3.19048H641.145L640.434 1.66667ZM655.465 1.66667H669.712L669.269 2.2872L670.534 3.19048H656.889L655.465 1.66667ZM671.025 1.66667H683.236L686.083 3.19048H673.157L671.025 1.66667ZM686.464 1.66667H700.031L703.565 3.19048H689.31L686.464 1.66667ZM703.879 1.66667H716.053L720.284 3.19048H707.413L703.879 1.66667ZM720.555 1.66667H732.028L731.964 1.87202L736.227 3.19048H724.784L720.555 1.66667ZM729.014 4.71428H739.807V4.2991L746.081 6.2381H733.245L729.014 4.71428ZM508.366 4.71428H520.505L516.275 6.2381H503.438L508.366 4.71428ZM525.005 4.71428H538.572L535.04 6.2381H520.775L525.005 4.71428ZM542.421 4.71428H557.364L554.517 6.2381H538.886L542.421 4.71428ZM560.592 4.71428H574.229L572.095 6.2381H557.745L560.592 4.71428ZM576.854 4.71428H591.208L589.785 6.2381H574.72L576.854 4.71428ZM593.291 4.71428H607.662L606.95 6.2381H591.869L593.291 4.71428ZM609.345 4.71428H623.998V6.2381H608.633L609.345 4.71428ZM625.522 4.71428H640.175L640.886 6.2381H625.522V4.71428ZM641.858 4.71428H656.229L657.651 6.2381H642.569L641.858 4.71428ZM658.312 4.71428H672.666L674.8 6.2381H659.735L658.312 4.71428ZM675.291 4.71428H688.928L691.775 6.2381H677.425L675.291 4.71428ZM692.156 4.71428H707.099L710.633 6.2381H695.002L692.156 4.71428ZM710.947 4.71428H724.514L728.745 6.2381H714.48L710.947 4.71428ZM498.511 7.7619H512.044L507.813 9.28572H493.584L498.511 7.7619ZM516.544 7.7619H531.505L527.971 9.28572H512.315L516.544 7.7619ZM535.354 7.7619H551.671L548.824 9.28572H531.819L535.354 7.7619ZM554.898 7.7619H569.962L567.828 9.28572H552.052L554.898 7.7619ZM572.586 7.7619H588.361L586.938 9.28572H570.453L572.586 7.7619ZM590.444 7.7619H606.238L605.526 9.28572H589.022L590.444 7.7619ZM607.921 7.7619H623.998V9.28572H607.209L607.921 7.7619ZM625.522 7.7619H641.599L642.31 9.28572H625.522V7.7619ZM643.282 7.7619H659.075L660.498 9.28572H643.994L643.282 7.7619ZM661.159 7.7619H676.934L679.066 9.28572H662.581L661.159 7.7619ZM679.557 7.7619H694.621L697.468 9.28572H681.691L679.557 7.7619ZM697.849 7.7619H714.166L717.7 9.28572H700.696L697.849 7.7619ZM718.014 7.7619H732.976L737.205 9.28572H721.549L718.014 7.7619ZM737.476 7.7619H751.008L755.935 9.28572H741.706L737.476 7.7619ZM488.657 10.8095H503.584L495.123 13.8571H478.803L488.657 10.8095ZM508.084 10.8095H524.437L517.37 13.8571H499.623L508.084 10.8095ZM528.285 10.8095H545.979L540.285 13.8571H521.218L528.285 10.8095ZM549.206 10.8095H565.696L561.428 13.8571H543.513L549.206 10.8095ZM568.319 10.8095H585.516L582.669 13.8571H564.053L568.319 10.8095ZM587.599 10.8095H604.813L603.389 13.8571H584.752L587.599 10.8095ZM606.496 10.8095H623.998V13.8571H605.072L606.496 10.8095ZM625.522 10.8095H643.023L644.447 13.8571H625.522V10.8095ZM644.706 10.8095H661.921L664.767 13.8571H646.13L644.706 10.8095ZM664.004 10.8095H681.2L685.467 13.8571H666.851L664.004 10.8095ZM683.824 10.8095H700.313L706.007 13.8571H688.092L683.824 10.8095ZM703.541 10.8095H721.235L728.302 13.8571H709.235L703.541 10.8095ZM725.083 10.8095H741.435L749.897 13.8571H732.15L725.083 10.8095ZM745.935 10.8095H760.863L770.717 13.8571H754.397L745.935 10.8095ZM473.903 15.3735V15.381H490.892L482.431 18.4286H464.022L473.903 15.3735ZM758.627 15.381H775.617V15.3735L785.498 18.4286H767.089L758.627 15.381ZM495.392 15.381H513.836L506.769 18.4286H486.932L495.392 15.381ZM517.684 15.381H537.438L531.746 18.4286H510.617L517.684 15.381ZM540.666 15.381H559.296L555.029 18.4286H534.974L540.666 15.381ZM561.919 15.381H581.245L578.4 18.4286H557.653L561.919 15.381ZM583.328 15.381H602.678L601.254 18.4286H580.483L583.328 15.381ZM604.361 15.381H623.998V18.4286H602.937L604.361 15.381ZM625.522 15.381H645.159L646.583 18.4286H625.522V15.381ZM646.842 15.381H666.191L669.037 18.4286H648.266L646.842 15.381ZM668.275 15.381H687.601L691.867 18.4286H671.12L668.275 15.381ZM690.224 15.381H708.854L714.546 18.4286H694.491L690.224 15.381ZM712.081 15.381H731.836L738.903 18.4286H717.773L712.081 15.381ZM735.684 15.381H754.127L762.587 18.4286H742.751L735.684 15.381ZM459.095 19.9524H478.202L461.279 26.0476H439.386L459.095 19.9524ZM482.702 19.9524H503.235L489.099 26.0476H465.781L482.702 19.9524ZM507.083 19.9524H528.9L517.514 26.0476H492.947L507.083 19.9524ZM532.127 19.9524H552.895L544.363 26.0476H520.742L532.127 19.9524ZM555.52 19.9524H576.976L571.284 26.0476H546.986L555.52 19.9524ZM579.059 19.9524H600.541L597.693 26.0476H573.367L579.059 19.9524ZM602.224 19.9524H623.998V26.0476H599.376L602.224 19.9524ZM625.522 19.9524H647.296L650.144 26.0476H625.522V19.9524ZM648.979 19.9524H670.461L676.153 26.0476H651.827L648.979 19.9524ZM672.544 19.9524H693.999L702.534 26.0476H678.236L672.544 19.9524ZM696.624 19.9524H717.392L728.778 26.0476H705.157L696.624 19.9524ZM720.62 19.9524H742.437L756.572 26.0476H732.005L720.62 19.9524ZM746.285 19.9524H766.818L783.739 26.0476H760.421L746.285 19.9524ZM771.318 19.9524H790.425L810.133 26.0476H788.241L771.318 19.9524ZM434.459 27.5714H457.05L440.127 33.6667H414.751L434.459 27.5714ZM461.55 27.5714H485.566L471.431 33.6667H444.629L461.55 27.5714ZM489.415 27.5714H514.668L503.282 33.6667H475.279L489.415 27.5714ZM517.895 27.5714H542.229L533.696 33.6667H506.51L517.895 27.5714ZM544.854 27.5714H569.86L564.168 33.6667H536.319L544.854 27.5714ZM571.943 27.5714H596.982L594.133 33.6667H566.251L571.943 27.5714ZM598.665 27.5714H623.998V33.6667H595.816L598.665 27.5714ZM625.522 27.5714H650.855L653.703 33.6667H625.522V27.5714ZM652.538 27.5714H677.577L683.269 33.6667H655.386L652.538 27.5714ZM679.66 27.5714H704.666L713.2 33.6667H685.352L679.66 27.5714ZM707.291 27.5714H731.624L743.01 33.6667H715.824L707.291 27.5714ZM734.852 27.5714H760.105L774.241 33.6667H746.238L734.852 27.5714ZM763.953 27.5714H787.97L804.891 33.6667H778.089L763.953 27.5714ZM792.47 27.5714H815.06L834.769 33.6667H809.392L792.47 27.5714ZM409.903 35.1667V35.1905H435.897L410.516 44.3333H380.261L409.903 35.1667ZM813.623 35.1905H839.617V35.1667L869.258 44.3333H839.004L813.623 35.1905ZM440.398 35.1905H467.897L446.694 44.3333H415.016L440.398 35.1905ZM471.745 35.1905H500.437L483.358 44.3333H450.543L471.745 35.1905ZM503.663 35.1905H531.562L518.761 44.3333H486.586L503.663 35.1905ZM534.187 35.1905H562.745L554.205 44.3333H521.386L534.187 35.1905ZM564.827 35.1905H593.421L589.148 44.3333H556.288L564.827 35.1905ZM595.104 35.1905H623.998V44.3333H590.831L595.104 35.1905ZM625.522 35.1905H654.416L658.688 44.3333H625.522V35.1905ZM656.099 35.1905H684.693L693.232 44.3333H660.371L656.099 35.1905ZM686.775 35.1905H715.333L728.133 44.3333H695.315L686.775 35.1905ZM717.958 35.1905H745.857L762.934 44.3333H730.758L717.958 35.1905ZM749.083 35.1905H777.775L798.977 44.3333H766.162L749.083 35.1905ZM781.623 35.1905H809.121L834.504 44.3333H802.825L781.623 35.1905ZM375.617 45.7708V45.8571H406.285L372.441 58.0476H335.918L375.617 45.7708ZM410.785 45.8571H443.16L414.891 58.0476H376.941L410.785 45.8571ZM447.008 45.8571H480.511L457.741 58.0476H418.739L447.008 45.8571ZM483.739 45.8571H516.629L499.562 58.0476H460.968L483.739 45.8571ZM519.252 45.8571H552.782L541.397 58.0476H502.187L519.252 45.8571ZM554.866 45.8571H588.437L582.741 58.0476H543.48L554.866 45.8571ZM590.12 45.8571H623.998V58.0476H584.422L590.12 45.8571ZM625.522 45.8571H659.4L665.098 58.0476H625.522V45.8571ZM661.083 45.8571H694.654L706.04 58.0476H666.779L661.083 45.8571ZM696.738 45.8571H730.267L747.333 58.0476H708.123L696.738 45.8571ZM732.891 45.8571H765.781L788.552 58.0476H749.958L732.891 45.8571ZM769.008 45.8571H802.511L830.781 58.0476H791.779L769.008 45.8571ZM806.36 45.8571H838.735L872.578 58.0476H834.629L806.36 45.8571ZM843.235 45.8571H874.185L913.602 58.0476H877.078L843.235 45.8571ZM330.991 59.5714H368.211L313.217 79.381H266.937L330.991 59.5714ZM372.712 59.5714H411.357L365.418 79.381H317.717L372.712 59.5714ZM415.205 59.5714H454.895L417.892 79.381H369.266L415.205 59.5714ZM458.121 59.5714H497.428L469.696 79.381H421.12L458.121 59.5714ZM500.053 59.5714H539.974L521.473 79.381H472.319L500.053 59.5714ZM542.056 59.5714H582.028L572.772 79.381H523.556L542.056 59.5714ZM583.711 59.5714H623.998V79.381H574.453L583.711 59.5714ZM625.522 59.5714H665.809L675.066 79.381H625.522V59.5714ZM667.492 59.5714H707.464L725.964 79.381H676.748L667.492 59.5714ZM709.546 59.5714H749.467L777.2 79.381H728.047L709.546 59.5714ZM752.092 59.5714H791.398L828.4 79.381H779.824L752.092 59.5714ZM794.624 59.5714H834.315L880.254 79.381H831.627L794.624 59.5714ZM838.163 59.5714H876.807L931.803 79.381H884.102L838.163 59.5714ZM881.309 59.5714H918.529L982.583 79.381H936.303L881.309 59.5714ZM940.534 80.9048H986.665V80.6443L1100.83 115.952H1037.83L940.534 80.9048ZM262.093 80.8795V80.9048H308.986L211.687 115.952H148.687L262.093 80.8795ZM313.486 80.9048H361.883L280.607 115.952H216.187L313.486 80.9048ZM365.732 80.9048H415.046L349.58 115.952H284.455L365.732 80.9048ZM418.273 80.9048H467.562L418.495 115.952H352.806L418.273 80.9048ZM470.187 80.9048H520.049L487.316 115.952H421.12L470.187 80.9048ZM522.132 80.9048H572.059L555.681 115.952H489.398L522.132 80.9048ZM573.742 80.9048H623.998V115.952H557.364L573.742 80.9048ZM625.522 80.9048H675.778L692.156 115.952H625.522V80.9048ZM677.461 80.9048H727.388L760.121 115.952H693.839L677.461 80.9048ZM729.471 80.9048H779.333L828.4 115.952H762.203L729.471 80.9048ZM781.958 80.9048H831.246L896.714 115.952H831.025L781.958 80.9048ZM834.474 80.9048H883.788L965.065 115.952H899.94L834.474 80.9048ZM887.636 80.9048H936.034L1033.33 115.952H968.913L887.636 80.9048ZM143.998 117.403V117.476H207.456L93.2361 158.619H10.7286L143.998 117.403ZM211.956 117.476H277.072L181.66 158.619H97.7361L211.956 117.476ZM280.921 117.476H346.733L269.88 158.619H185.508L280.921 117.476ZM349.961 117.476H416.363L358.761 158.619H273.108L349.961 117.476ZM418.986 117.476H485.892L447.467 158.619H361.386L418.986 117.476ZM487.976 117.476H554.97L535.743 158.619H449.55L487.976 117.476ZM556.653 117.476H623.998V158.619H537.427L556.653 117.476ZM625.522 117.476H692.867L712.093 158.619H625.522V117.476ZM694.55 117.476H761.544L799.97 158.619H713.776L694.55 117.476ZM763.627 117.476H830.534L888.133 158.619H802.053L763.627 117.476ZM833.157 117.476H899.559L976.412 158.619H890.758L833.157 117.476ZM902.787 117.476H968.599L1064.01 158.619H979.639L902.787 117.476ZM972.447 117.476H1037.56L1151.78 158.619H1067.86L972.447 117.476ZM1042.06 117.476H1105.76L1238.79 158.619H1156.28L1042.06 117.476Z" fill="url(#paint0_linear_3166_12640)"/>
</g>
<defs>
<linearGradient id="paint0_linear_3166_12640" x1="623.999" y1="160.905" x2="623.999" y2="-0.619061" gradientUnits="userSpaceOnUse">
<stop stop-color="white" stop-opacity="0.43"/>
<stop offset="0.278815" stop-color="white" stop-opacity="0.7"/>
<stop offset="0.5" stop-color="white" stop-opacity="0"/>
</linearGradient>
</defs>
</svg>
